<svg width="1154" height="1154" viewBox="0 0 1154 1154" fill="none" xmlns="http://www.w3.org/2000/svg">
<g clip-path="url(#clip0_330_172)">
<path d="M678.426 6.76243C680.738 7.22222 683.051 7.682 685.434 8.15572C779.295 27.2561 865.356 65.8702 939.879 126.219C941.106 127.211 942.333 128.203 943.597 129.225C975.262 155.054 1005.29 183.788 1030.03 216.376C1031.63 218.412 1033.23 220.449 1034.88 222.548C1113.59 324.604 1155.11 447.983 1154.84 576.578C1154.84 579.911 1154.84 579.911 1154.84 583.311C1154.49 722.667 1103.56 860.89 1008.2 963.554C1003.58 968.54 999.107 973.608 994.677 978.759C981.09 994.301 966.371 1007.5 950.233 1020.38C946.462 1023.42 942.747 1026.52 939.033 1029.63C857.061 1097.74 754.254 1138.01 649.125 1151.75C646.904 1152.04 646.904 1152.04 644.638 1152.33C632.085 1153.86 619.706 1154.39 607.067 1154.46C605.04 1154.47 603.013 1154.49 600.924 1154.51C594.405 1154.55 587.886 1154.56 581.367 1154.56C578.027 1154.57 578.027 1154.57 574.619 1154.57C541.141 1154.53 508.54 1153.63 475.574 1147.24C473.494 1146.84 471.414 1146.44 469.271 1146.03C410.769 1134.45 354.623 1114.48 302.023 1086.38C299.775 1085.19 299.775 1085.19 297.482 1083.98C275.191 1072.11 254.529 1058.8 234.406 1043.56C233.099 1042.58 231.792 1041.6 230.445 1040.58C210.375 1025.44 191.648 1009.17 173.55 991.719C172.297 990.515 171.044 989.312 169.753 988.071C153.256 972.142 138.076 955.743 123.965 937.626C121.38 934.462 121.38 934.462 118.744 931.234C92.7372 898.757 71.5739 862.626 54.0935 824.93C53.354 823.373 52.6146 821.816 51.8528 820.211C30.3144 774.746 16.5738 727.713 6.76144 678.426C6.35395 676.44 5.94646 674.453 5.52663 672.405C-6.68875 609.932 -5.91631 535.63 6.76144 473.321C7.19725 471.072 7.63306 468.822 8.08208 466.504C28.5552 362.907 75.0531 265.428 147.815 188.36C152.483 183.399 156.912 178.339 161.295 173.129C170.524 162.528 180.992 153.461 191.582 144.251C193.981 142.11 196.378 139.967 198.775 137.824C227.678 112.222 259.476 91.1714 293.008 72.1257C294.485 71.2835 295.962 70.4413 297.485 69.5736C322.885 55.2416 349.067 43.9217 376.402 33.8093C378.879 32.8816 378.879 32.8816 381.406 31.9351C412.026 20.6128 443.603 13.1842 475.574 6.76243C477.583 6.35168 479.591 5.94092 481.661 5.51772C543.525 -6.48253 616.736 -5.81318 678.426 6.76243ZM453.739 97.623C409.323 144.135 379.423 203.49 358.371 263.708C396.602 273.348 435.566 279.134 474.729 283.429C477.219 283.717 479.709 284.005 482.274 284.301C507.382 286.884 531.033 286.247 556.715 286.247C556.715 205.174 556.715 124.101 556.715 40.571C518.643 40.571 479.669 72.7866 453.739 97.623ZM597.285 42.8249C597.285 123.154 597.285 203.483 597.285 286.247C638.163 286.464 638.163 286.464 678.566 283.57C681.256 283.278 683.945 282.987 686.716 282.686C740.733 276.554 740.733 276.554 793.375 263.708C779.139 216.815 755.468 169.646 725.758 130.727C723.374 127.594 723.374 127.594 720.942 124.397C688.728 83.6235 650.636 49.4938 597.285 42.8249ZM716.742 58.6023C718.555 60.6942 720.368 62.7861 722.236 64.9414C771.967 123.155 807.151 183.033 833.945 254.692C877.771 242.029 918.75 226.495 960.164 207.36C960.164 199.171 957.712 197.279 952.153 191.648C950.985 190.511 949.816 189.373 948.613 188.202C947.401 187.01 946.189 185.817 944.94 184.589C931.366 171.491 916.69 159.993 901.562 148.759C900.266 147.788 898.97 146.818 897.634 145.818C843.78 105.69 782.279 74.224 716.742 58.6023ZM234.406 162.282C232.531 163.839 232.531 163.839 230.618 165.427C226.419 168.917 222.24 172.428 218.065 175.946C216.76 177.034 215.455 178.122 214.111 179.243C204.867 187.12 196.986 195.687 189.328 205.106C251.868 239.28 251.868 239.28 320.054 252.438C320.984 249.791 321.914 247.145 322.872 244.417C346.118 179.18 379.255 121.368 427.344 71.166C432.94 65.4727 432.94 65.4727 437.258 58.6023C370.553 58.6023 283.421 121.014 234.406 162.282ZM156.963 239.534C155.929 240.881 154.894 242.228 153.829 243.616C152.069 245.896 152.069 245.896 150.274 248.221C149.029 249.892 147.785 251.562 146.504 253.283C145.209 255.005 143.914 256.726 142.58 258.499C77.8982 345.904 45.0555 448.886 38.3161 556.716C114.183 556.716 190.049 556.716 268.215 556.716C269.702 530.683 271.19 504.65 272.722 477.829C278.46 415.316 290.293 353.641 306.531 293.009C304.354 292.284 302.176 291.559 299.933 290.812C202.922 258.429 202.922 258.429 170.46 238.492C165.087 235.812 161.481 235.298 156.963 239.534ZM977.332 241.371C936.282 261.731 894.261 279.541 849.722 290.755C847.257 298.202 847.733 302.834 849.81 310.344C850.37 312.442 850.93 314.54 851.507 316.702C852.127 318.97 852.746 321.239 853.385 323.577C873.483 400.602 879.813 477.084 885.785 556.716C960.908 556.716 1036.03 556.716 1113.43 556.716C1112.09 521.284 1112.09 521.284 1107.23 486.704C1106.84 484.656 1106.44 482.608 1106.03 480.498C1101.92 459.814 1096.94 439.428 1090.89 419.227C1090.11 416.627 1090.11 416.627 1089.32 413.973C1070.34 352.171 1038.59 282.561 991.719 236.661C985.839 236.661 982.589 238.72 977.332 241.371ZM344.847 302.024C329.401 362.231 316.409 422.526 311.039 484.591C310.789 487.432 310.539 490.274 310.282 493.201C308.635 514.518 308.785 535.198 308.785 556.716C390.602 556.716 472.418 556.716 556.715 556.716C556.715 480.849 556.715 404.983 556.715 326.817C538.864 326.073 521.013 325.33 502.621 324.563C491.958 323.756 481.402 322.896 470.784 321.746C468.115 321.464 465.445 321.183 462.694 320.892C423.128 316.489 383.987 309.202 344.847 302.024ZM783.576 306.426C752.93 312.351 722.396 317.135 691.385 320.619C689.787 320.805 688.188 320.991 686.54 321.183C656.75 324.617 627.373 325.563 597.285 326.817C597.285 402.684 597.285 478.55 597.285 556.716C679.102 556.716 760.918 556.716 845.215 556.716C843.555 508.403 843.555 508.403 839.157 460.502C838.967 458.931 838.776 457.36 838.58 455.741C832.298 404.331 822.447 353.737 806.898 304.278C798.789 304.055 791.522 304.833 783.576 306.426ZM38.3161 597.286C40.1516 630.026 40.1516 630.026 44.5144 662.227C45.1054 665.646 45.1054 665.646 45.7085 669.134C62.3495 762.34 102.425 844.878 160.027 919.594C172.423 915.926 183.554 910.357 195.103 904.662C231.119 887.246 268.01 873.905 306.531 863.247C306.044 861.279 305.557 859.312 305.055 857.285C283.793 770.826 272.09 686.426 268.215 597.286C192.348 597.286 116.482 597.286 38.3161 597.286ZM308.785 597.286C308.741 630.289 308.741 630.289 310.616 663.072C310.819 665.46 311.021 667.849 311.23 670.309C316.7 731.991 328.294 792.33 344.847 851.977C359.368 850.541 373.494 848.267 387.812 845.497C443.799 835.118 499.751 831.566 556.715 827.184C556.715 751.318 556.715 675.451 556.715 597.286C474.898 597.286 393.081 597.286 308.785 597.286ZM597.285 597.286C597.285 673.152 597.285 749.019 597.285 827.184C633.731 830.159 670.176 833.135 707.726 836.2C732.589 839.943 757.194 843.697 781.772 848.805C783.767 849.219 785.763 849.632 787.819 850.058C789.551 850.428 791.283 850.798 793.067 851.179C798.551 852.223 798.551 852.223 806.898 851.977C821.701 801.521 831.495 750.818 838.453 698.712C838.711 696.845 838.97 694.979 839.236 693.056C843.614 661.101 844.013 629.73 845.215 597.286C763.398 597.286 681.581 597.286 597.285 597.286ZM885.785 597.286C883.554 627.037 881.322 656.789 879.023 687.442C872.757 742.493 864.318 798.328 848.675 851.654C847.195 856.749 847.195 856.749 847.469 863.247C849.222 863.8 850.975 864.353 852.781 864.922C891.464 877.218 928.682 890.801 965.566 907.874C974.242 911.874 982.977 915.739 991.719 919.594C1011.8 894.376 1029.83 868.713 1045.81 840.708C1047.17 838.338 1047.17 838.338 1048.56 835.92C1077.61 784.709 1095.1 729.181 1106.67 671.665C1107.15 669.396 1107.64 667.126 1108.14 664.789C1112.51 642.203 1112.31 620.775 1113.43 597.286C1038.31 597.286 963.184 597.286 885.785 597.286ZM597.285 867.755C597.285 948.828 597.285 1029.9 597.285 1113.43C657.203 1101.45 700.781 1063.07 734.139 1013.11C735.859 1010.49 737.573 1007.87 739.281 1005.24C740.109 1003.97 740.937 1002.7 741.79 1001.39C776.777 948.901 776.777 948.901 793.375 890.294C728.579 877.682 663.466 867.755 597.285 867.755ZM360.625 890.294C362.019 902.311 365.913 912.379 370.626 923.398C371.417 925.256 372.207 927.114 373.021 929.028C391.014 970.51 413.555 1008.28 441.765 1043.56C443.111 1045.26 444.456 1046.96 445.842 1048.71C473.721 1082.34 513.28 1108 556.715 1113.43C556.715 1032.36 556.715 951.284 556.715 867.755C490.984 867.755 424.732 876.115 360.625 890.294ZM833.945 901.563C833.116 903.752 833.116 903.752 832.269 905.985C807.075 971.958 775.947 1029.22 727.967 1081.37C723.946 1085.89 720.288 1090.5 716.742 1095.4C729.621 1094.02 741.044 1090.72 753.227 1086.38C755.188 1085.69 757.149 1084.99 759.169 1084.27C823.766 1060.83 881.763 1026.04 933.117 980.45C934.395 979.335 935.674 978.219 936.991 977.07C940.838 973.711 944.659 970.325 948.472 966.926C949.649 965.896 950.827 964.866 952.04 963.805C954.881 961.228 957.541 958.455 960.164 955.657C960.164 953.426 960.164 951.194 960.164 948.895C919.434 928.787 878.492 911.141 833.945 901.563ZM299.426 905.56C296.625 906.481 293.823 907.402 290.937 908.351C287.917 909.373 284.898 910.398 281.879 911.424C280.364 911.932 278.85 912.44 277.29 912.964C247.731 922.906 219.46 934.914 191.582 948.895C195.181 957.747 201.239 963.839 207.923 970.448C209.117 971.632 210.312 972.816 211.543 974.035C264.595 1025.58 333.163 1063.4 402.463 1087.93C405.782 1089.12 405.782 1089.12 409.168 1090.33C411.235 1091.04 413.302 1091.74 415.432 1092.47C417.255 1093.09 419.078 1093.71 420.957 1094.36C426.479 1095.5 429.717 1094.95 435.004 1093.15C433.99 1092.21 432.976 1091.27 431.931 1090.31C381.996 1042.48 342.43 974.984 322.308 909.117C321.193 906.494 321.193 906.494 320.054 903.817C311.405 900.934 308.028 902.727 299.426 905.56Z" fill="white"/>
</g>
<defs>
<clipPath id="clip0_330_172">
<rect width="1154" height="1154" fill="white"/>
</clipPath>
</defs>
</svg>
